<?xml version="1.0" encoding="UTF-8"?>
<svg width="228px" height="228px" viewBox="0 0 228 228" version="1.1" xmlns="http://www.w3.org/2000/svg" xmlns:xlink="http://www.w3.org/1999/xlink">
    <title>icons/callcenter</title>
    <g id="icons/callcenter" stroke="none" stroke-width="1" fill="none" fill-rule="evenodd">
        <path d="M73.6662,136.6988 L75.4952,145.2868 L57.1772,149.1868 C49.9812,151.1518 46.0452,154.9238 44.7962,161.0478 L44.7962,161.0478 L38.5932,198.3068 L29.6922,198.3068 L36.1732,159.3898 C38.0882,149.8238 44.4242,143.5278 55.0032,140.6788 L55.0032,140.6788 L55.2302,140.6248 L73.6662,136.6988 Z M154.5236,136.6988 L172.9596,140.6248 L173.1866,140.6788 C183.7656,143.5278 190.1016,149.8238 192.0166,159.3898 L198.4966,198.3068 L189.5966,198.3068 L183.3936,161.0478 C182.1446,154.9238 178.2086,151.1518 171.0126,149.1868 L152.6946,145.2868 L154.5236,136.6988 Z M147.4049,151.4939 L153.6129,157.7029 L150.5099,160.8059 C142.3319,168.9849 127.2369,174.6969 113.8009,174.6969 C100.3659,174.6969 85.2719,168.9849 77.0919,160.8069 L73.9879,157.7029 L80.1969,151.4939 L83.3009,154.5979 C88.9259,160.2229 101.2079,165.9169 113.8009,165.9169 C126.3949,165.9169 138.6769,160.2229 144.3009,154.5979 L147.4049,151.4939 Z M138.8072,71.4571 C138.8072,80.0521 145.8002,87.0441 154.3952,87.0441 L154.3952,87.0441 L159.5152,87.0441 L159.5152,102.4221 C159.5152,131.8311 139.1532,155.7571 114.1252,155.7571 C88.2482,155.7571 68.7352,131.9681 68.7352,100.4221 C68.7352,89.2911 78.4982,79.5291 89.6292,79.5291 L89.6292,79.5291 L118.9562,79.5291 C129.641002,79.5291 130.013728,74.0661491 130.02673,71.7010148 L130.0272,71.4571 Z M133.4572,83.9131 C130.0512,86.7601 125.1192,88.3091 118.9562,88.3091 L118.9562,88.3091 L89.6292,88.3091 C82.6952,88.3091 77.5152,94.7041 77.5152,100.4221 C77.5152,126.9621 93.2542,146.9771 114.1252,146.9771 C125.2312,146.9771 135.1912,140.9181 141.9112,131.3831 C134.9272,132.8091 128.2202,133.4561 122.8712,133.7281 C121.2762,135.8721 118.7312,137.2681 115.8602,137.2681 C111.0382,137.2681 107.1152,133.3451 107.1152,128.5231 C107.1152,123.7011 111.0382,119.7771 115.8602,119.7771 C119.3832,119.7771 122.4182,121.8751 123.8022,124.8831 C130.1392,124.4981 138.1952,123.5551 146.1032,121.3651 L146.1032,121.3651 L147.3842,121.0091 C149.5292,115.3481 150.7352,109.0551 150.7352,102.4221 L150.7352,102.4221 L150.7352,95.5501 C143.3952,94.4411 137.1182,90.0441 133.4572,83.9131 Z M114.0947,29.2801 C147.7347,29.2801 175.1017,56.6471 175.1017,90.2871 L175.1017,132.2681 L166.3227,132.2681 L166.3227,90.2871 C166.3227,61.4891 142.8927,38.0601 114.0947,38.0601 C85.2967,38.0601 61.8677,61.4891 61.8677,90.2871 L61.8677,132.2191 L53.0877,132.2191 L53.0877,90.2871 C53.0877,56.6471 80.4557,29.2801 114.0947,29.2801 Z" id="Combined-Shape" fill="#1A1919"></path>
    </g>
</svg>