<?xml version="1.0" encoding="utf-8"?>
<!-- Generator: Adobe Illustrator 27.2.0, SVG Export Plug-In . SVG Version: 6.00 Build 0)  -->
<svg version="1.1" xmlns="http://www.w3.org/2000/svg" xmlns:xlink="http://www.w3.org/1999/xlink" x="0px" y="0px"
	 viewBox="0 0 1865.3 966.1" style="enable-background:new 0 0 1865.3 966.1;" xml:space="preserve">
<style type="text/css">
	.st0{fill:#FFFFFF;}
	.st1{fill:#151616;}
</style>
<g id="GUIDES">
	<g>
	</g>
	<g>
	</g>
	<g>
	</g>
	<g>
	</g>
</g>
<g id="UNDER_PIN">
	<g>
		<g>
			<path class="st0" d="M532.6,138.6c-190.2,0-344.4,154.2-344.4,344.4c0,190.2,154.2,344.4,344.4,344.4
				c190.2,0,344.4-154.2,344.4-344.4C877,292.8,722.8,138.6,532.6,138.6z"/>
		</g>
	</g>
</g>
<g id="EA_PRIMARY">
	<g>
		<g>
			<polygon class="st1" points="927.2,138 1021,300 1115.4,138 			"/>
			<path class="st1" d="M1438.4,431.7l-111.3,191.1l-16.8-29l205.2-352.1h33.7l-93.9,161.1h118.4L1727.2,138c0,0-196.3,0-228.5,0
				c-41.7,0-66.2,38.8-66.2,38.8s-218.5,375.2-218.7,375.2c-11.2,22.6-11.2,59.4,0.2,80.6c0.2,0.4,113.2,195.3,113.2,195.3
				l229.8-396.4H1438.4z"/>
			<path class="st1" d="M1130.2,374.2h153.5l60.6-104.1h-153.6l16.9-29h153.6l60.1-103.1c0,0-186.5,0-226.4,0
				c-43.2,0-68.5,39-68.5,39l-88.6,152l59.2,102.1L1130.2,374.2z"/>
		</g>
		<g>
			<path class="st1" d="M410.6,560.3H385v33.1h25.7c2.2,0,4-0.8,5.4-2.5c1.4-1.7,2.1-3.7,2.1-6.3V569c0-2.6-0.7-4.6-2.1-6.3
				C414.7,561.1,412.8,560.3,410.6,560.3z"/>
			<path class="st1" d="M593.8,560.3h-24.7v30.5h24.7c2.2,0,4-0.8,5.3-2.4c1.4-1.6,2-3.7,2-6.2V569c0-2.5-0.6-4.6-2-6.3
				C597.7,561.1,595.9,560.3,593.8,560.3z"/>
			<path class="st1" d="M500.9,560.3h-18.1c-2.4,0-4.2,0.8-5.6,2.5c-1.4,1.7-2,3.7-2,6.3v54.6c0,2.5,0.7,4.5,2,6.2
				c1.4,1.7,3.2,2.6,5.6,2.6h18.1c2.2,0,4-0.9,5.4-2.6c1.5-1.7,2.2-3.7,2.2-6.2V569c0-2.5-0.7-4.6-2.2-6.3
				C504.9,561.1,503.1,560.3,500.9,560.3z"/>
			<path class="st1" d="M532.6,88.7c-217.8,0-394.4,176.6-394.4,394.4c0,217.8,176.6,394.4,394.4,394.4
				c217.8,0,394.4-176.6,394.4-394.4C927,265.3,750.4,88.7,532.6,88.7z M385.2,271.2h202.7l-31.1,49.2l-202.7,0.1L385.2,271.2z
				 M344.1,626.9c0,6.3-2.2,11.7-6.5,16c-4.4,4.4-9.8,6.7-16,6.7h-26.8c-6.3,0-11.7-2.1-15.9-6.4c-4.3-4.2-6.4-9.5-6.4-15.9v-10.6
				H289l2.4,9.8c1.1,4,3.9,6.1,8.4,6.1h18.1c2.2,0,4.1-0.8,5.5-2.5c1.3-1.6,2-3.8,2-6.2v-11.6c0-5.7-2.5-8.6-7.5-8.6h-22.7
				c-6.2,0-11.6-2.2-16.1-6.6c-4.4-4.4-6.5-9.8-6.5-16.1v-15.4c0-6.2,2.2-11.5,6.5-15.9c4.5-4.4,9.9-6.6,16.1-6.6h26.4
				c6.2,0,11.5,2.1,15.8,6.3c4.3,4.3,6.4,9.5,6.4,15.9v9.6h-16.3l-2.5-8.7c-1.3-4.1-4.1-6.2-8.3-6.2h-17.8c-2.3,0-4.2,0.8-5.5,2.5
				c-1.5,1.7-2.1,3.8-2.1,6.3v9c0,5.6,2.5,8.4,7.6,8.4h22.7c6.1,0,11.5,2.2,15.9,6.7c4.4,4.5,6.6,9.8,6.6,15.9V626.9z M437.1,587.9
				c0,6.3-2.2,11.6-6.6,16c-4.5,4.4-9.9,6.6-16.1,6.6H385v39.1h-18.8V543.1h48.2c6.2,0,11.6,2.2,16.1,6.6c4.4,4.4,6.6,9.7,6.6,15.8
				V587.9z M527.3,626.7c0,6.5-2.1,11.8-6.7,16.2c-4.5,4.4-9.7,6.7-16,6.7h-25.4c-6.3,0-11.7-2.2-16.1-6.7
				c-4.4-4.4-6.7-9.7-6.7-16.2v-61.2c0-6.1,2.3-11.5,6.7-15.8c4.4-4.4,9.8-6.6,16.1-6.6h25.4c6.3,0,11.6,2.2,16,6.6
				c4.5,4.3,6.7,9.7,6.7,15.9V626.7z M532,517.7l-256.8,0.1l62.4-98.7h-45.8l31.2-49.3h191l-31.2,49.3h-85.6l-31.6,49.4h137.8
				l126-199l156.9,248.2h-59.2l-31.2-49.3h-92.7l31.2-49.4h30.4l-35.4-56L532,517.7z M604.3,649.6L587,607.9h-17.9v41.7h-18.8V543.1
				h47.1c6.3,0,11.7,2.2,16,6.6c4.4,4.4,6.6,9.7,6.6,15.8v18.6c0,4.8-1.3,9.2-4,13.1c-2.8,3.8-6.3,6.6-10.4,8.4l18.7,44H604.3z
				 M705.1,560.3h-27.3v89.3H659v-89.3h-27.1v-17.2h73.3V560.3z M790.5,626.9c0,6.3-2.2,11.7-6.6,16c-4.5,4.4-9.8,6.7-16.1,6.7
				h-26.6c-6.4,0-11.6-2.1-15.9-6.4c-4.2-4.2-6.4-9.5-6.4-15.9v-10.6h16.4l2.5,9.8c1.2,4,3.9,6.1,8.4,6.1h18.1
				c2.3,0,4.2-0.8,5.6-2.5c1.3-1.6,2-3.8,2-6.2v-11.6c0-5.7-2.5-8.6-7.6-8.6h-22.7c-6.3,0-11.7-2.2-16-6.6
				c-4.4-4.4-6.7-9.8-6.7-16.1v-15.4c0-6.2,2.3-11.5,6.7-15.9c4.3-4.4,9.7-6.6,16-6.6h26.3c6.3,0,11.6,2.1,15.9,6.3
				c4.3,4.3,6.4,9.5,6.4,15.9v9.6h-16.4l-2.5-8.7c-1.3-4.1-4.1-6.2-8.3-6.2h-17.9c-2.3,0-4.2,0.8-5.5,2.5c-1.4,1.7-2.1,3.8-2.1,6.3
				v9c0,5.6,2.6,8.4,7.6,8.4h22.7c6.2,0,11.5,2.2,15.9,6.7c4.6,4.5,6.8,9.8,6.8,15.9V626.9z M802,548.3h-4v8.5h-2v-8.5h-4v-1.8h10
				V548.3z M814,556.9v-6.4c0-0.3,0-0.6,0.1-1.1c-0.2,0.4-0.2,0.8-0.5,1.1l-3.3,5.1H810l-3.4-5.1c-0.2-0.3-0.4-0.7-0.6-1
				c0,0.4,0.2,0.8,0.2,1.1v6.4h-1.7v-10.3h1.7l4,6.2l4.1-6.2h1.6v10.3H814z"/>
		</g>
	</g>
</g>
</svg>
