<?xml version="1.0" encoding="UTF-8"?>
<svg width="228px" height="228px" viewBox="0 0 228 228" version="1.1" xmlns="http://www.w3.org/2000/svg" xmlns:xlink="http://www.w3.org/1999/xlink">
    <title>icons/pitch</title>
    <g id="icons/pitch" stroke="none" stroke-width="1" fill="none" fill-rule="evenodd">
        <path d="M188.571154,57 L188.571154,57.0940412 C193.885214,57.7623344 198,62.3063273 198,67.8247477 L198,67.8247477 L198,160.176253 C198,166.154875 193.175013,171 187.222469,171 L187.222469,171 L40.7715549,171 C34.821999,171 30,166.156876 30,160.181255 L30,160.181255 L30,67.8247477 C30,61.8461255 34.8239912,57 40.7775314,57 L40.7775314,57 L188.571154,57 Z M109.738,65.719 L38.6807935,65.7198245 L38.68,84 L51.2460737,84 C57.0900891,84 61.8444134,88.6931867 61.9962584,94.5439365 L62,94.832596 L62,133.161394 C62,139.148672 57.1829093,144 51.240107,144 L51.240107,144 L38.68,144 L38.6807935,162.281176 L109.738,162.281 L109.738165,142.379684 C96.1541023,140.304367 85.7129027,128.677116 85.4841336,114.567498 L85.4803,114.0943 C85.4803,99.7728745 96.0026891,87.9083485 109.738207,85.8099109 L109.738,65.719 Z M189.319206,65.7198245 L118.453,65.719 L118.453499,85.8101222 C132.035924,87.8859868 142.475721,99.5127487 142.704467,113.621127 L142.7083,114.0943 C142.7083,128.415945 132.187624,140.280411 118.453541,142.379473 L118.453,162.281 L189.319206,162.281176 L189.319,144 L176.753926,144 C170.909911,144 166.155587,139.306813 166.003742,133.457018 L166,133.168406 L166,94.8386063 C166,88.8523298 170.817091,84 176.759893,84 L176.759893,84 L189.319,84 L189.319206,65.7198245 Z M189.319,92.73 L174.666587,92.7309882 L174.666587,135.271015 L189.319,135.271 L189.319,92.73 Z M38.68,135.27 L53.3334133,135.270014 L53.3334133,92.7289848 L38.68,92.728 L38.68,135.27 Z M109.738172,94.740392 C100.879738,96.7259866 94.2603,104.637488 94.2603,114.0943 C94.2603,123.551866 100.879643,131.463565 109.738133,133.449199 Z M118.453965,94.7408304 L118.453019,133.448982 C127.310109,131.463 133.9283,123.551615 133.9283,114.0943 C133.9283,104.638089 127.310505,96.7271382 118.453965,94.7408304 Z" id="Combined-Shape" fill="#1A1919"></path>
    </g>
</svg>