<?xml version="1.0" encoding="UTF-8"?>
<svg width="228px" height="228px" viewBox="0 0 228 228" version="1.1" xmlns="http://www.w3.org/2000/svg" xmlns:xlink="http://www.w3.org/1999/xlink">
    <title>icons/match/whistle</title>
    <g id="icons/match/whistle" stroke="none" stroke-width="1" fill="none" fill-rule="evenodd">
        <path d="M184.123039,71 C189.645887,71 194.123039,75.4771525 194.123039,81 L194.123039,114 C194.123039,119.522806 189.645846,123.999942 184.123039,124.000105 L145.120703,124.000515 C144.852061,152.764965 121.450967,176 92.6230392,176 C84.5864553,176 76.9716287,174.194242 70.1621653,170.966333 L64.4422659,176.139187 C58.7627008,181.276046 50.0738851,181.055313 44.6619624,175.689495 L44.4383788,175.462943 L40.2850378,171.162032 C34.7643255,165.445167 34.9233386,156.335311 40.6402036,150.814598 L40.8159251,150.647743 L40.9944313,150.483869 L45.4135606,146.494882 C42.02474,139.550474 40.1230392,131.74732 40.1230392,123.5 C40.1230392,95.6811455 61.7599356,72.915859 89.123054,71.114815 L89.1230392,71 L184.123039,71 Z M50.0105707,154.173064 L46.8078098,157.065352 L46.7393041,157.130402 C44.5636263,159.231429 44.4527494,162.665862 46.4508727,164.901523 L46.6008413,165.062932 L50.7541822,169.363842 C52.8056019,171.488149 56.1402882,171.651001 58.3863988,169.772217 L58.5527789,169.627479 L62.2234133,166.308315 C57.5176904,162.960588 53.3876066,158.856368 50.0105707,154.173064 Z M185.343039,79.78 L91.1420392,79.78 L89.699707,79.8758578 C67.0459914,81.3669283 49.2618185,100.061373 48.9084004,122.809437 L48.9030392,123.5 C48.9030392,147.645889 68.4771499,167.22 92.6230392,167.22 C116.373379,167.22 135.72671,148.271467 136.328601,124.63616 L136.341086,123.918519 L136.422319,115.220606 L185.343039,115.22 L185.343039,79.78 Z M100.606658,91.6640116 C118.477772,96.4525623 129.083286,114.82185 124.294735,132.692965 C120.266297,147.727301 106.626416,157.619581 91.7574647,157.530241 L94.1369215,148.651124 C104.176534,147.753098 113.053391,140.722917 115.813906,130.420534 C119.347428,117.233252 111.521509,103.678362 98.3342268,100.14484 C85.3083026,96.6545545 71.9237119,104.247425 68.1927228,117.142865 L59.711944,114.87042 L59.7254215,114.818143 C64.7335915,97.2704035 82.9142547,86.9233465 100.606658,91.6640116 Z M107.514318,43.7399394 L107.679488,43.9046028 L121.679488,58.6096809 C123.351275,60.3656635 123.28302,63.1444196 121.527038,64.8162064 C119.8277,66.4340647 117.170509,66.422332 115.485682,64.82842 L115.320512,64.6637566 L101.320512,49.9586785 C99.6487255,48.2026959 99.7169796,45.4239398 101.472962,43.7521529 C103.1723,42.1342947 105.829491,42.1460274 107.514318,43.7399394 Z M145.985682,43.7399394 C147.670509,42.1460274 150.3277,42.1342947 152.027038,43.7521529 C153.78302,45.4239398 153.851275,48.2026959 152.179488,49.9586785 L152.179488,49.9586785 L138.179488,64.6637566 L138.014318,64.82842 C136.329491,66.422332 133.6723,66.4340647 131.972962,64.8162064 C130.21698,63.1444196 130.148725,60.3656635 131.820512,58.6096809 L131.820512,58.6096809 L145.820512,43.9046028 Z" id="Combined-Shape" fill="#1A1919"></path>
    </g>
</svg>